<svg xmlns="http://www.w3.org/2000/svg" viewBox="0 0 900 605" role="img" aria-labelledby="title desc"><title id="title">Same outer dimensions, changed inner geometry</title><desc id="desc">Wireframes project the recorded USD baseline and candidate. One inner floor point moves 4 centimetres. Six checks pass and shape preservation fails. A deliberately constructed evaluator test, not a model hallucination.</desc><defs><marker id="arrow" viewBox="0 0 10 10" refX="8" refY="5" markerWidth="6" markerHeight="6" orient="auto-start-reverse"><path d="M 0 0 L 10 5 L 0 10 z" fill="#65706e"/></marker></defs><rect width="900" height="605" fill="#fbfaf7"/><g font-family="Arial,Helvetica,sans-serif" fill="#222a2c"><text x="30" y="41" font-size="27" font-weight="700" fill="#222a2c">Same outer dimensions. A different inner shape.</text><text x="30" y="74" font-size="18" font-weight="400" fill="#586166">A recorded evaluator test, deliberately constructed by the coding agent</text><rect x="30" y="101" width="405" height="260" rx="9" fill="#ffffff" stroke="#58686c" stroke-width="1.5"/><text x="48" y="129" font-size="15" font-weight="700" fill="#58686c">BASELINE</text><path d="M 138.000 160.250 L 408.000 241.250" stroke="#8a999e" stroke-width="1.5" fill="none"/><path d="M 138.000 160.250 L 57.000 227.750" stroke="#8a999e" stroke-width="1.5" fill="none"/><path d="M 138.000 160.250 L 138.000 133.250" stroke="#8a999e" stroke-width="1.5" fill="none"/><path d="M 408.000 241.250 L 327.000 308.750" stroke="#8a999e" stroke-width="1.5" fill="none"/><path d="M 408.000 241.250 L 408.000 214.250" stroke="#8a999e" stroke-width="1.5" fill="none"/><path d="M 327.000 308.750 L 57.000 227.750" stroke="#8a999e" stroke-width="1.5" fill="none"/><path d="M 327.000 308.750 L 327.000 281.750" stroke="#8a999e" stroke-width="1.5" fill="none"/><path d="M 57.000 227.750 L 57.000 200.750" stroke="#8a999e" stroke-width="1.5" fill="none"/><path d="M 138.000 133.250 L 408.000 214.250" stroke="#8a999e" stroke-width="1.5" fill="none"/><path d="M 138.000 133.250 L 57.000 200.750" stroke="#8a999e" stroke-width="1.5" fill="none"/><path d="M 138.000 133.250 L 148.800 154.850" stroke="#8a999e" stroke-width="1.5" fill="none"/><path d="M 408.000 214.250 L 327.000 281.750" stroke="#8a999e" stroke-width="1.5" fill="none"/><path d="M 408.000 214.250 L 364.800 219.650" stroke="#8a999e" stroke-width="1.5" fill="none"/><path d="M 327.000 281.750 L 57.000 200.750" stroke="#8a999e" stroke-width="1.5" fill="none"/><path d="M 327.000 281.750 L 316.200 260.150" stroke="#8a999e" stroke-width="1.5" fill="none"/><path d="M 57.000 200.750 L 100.200 195.350" stroke="#8a999e" stroke-width="1.5" fill="none"/><path d="M 148.800 154.850 L 364.800 219.650" stroke="#8a999e" stroke-width="1.5" fill="none"/><path d="M 148.800 154.850 L 100.200 195.350" stroke="#8a999e" stroke-width="1.5" fill="none"/><path d="M 148.800 154.850 L 148.800 173.750" stroke="#8a999e" stroke-width="1.5" fill="none"/><path d="M 364.800 219.650 L 316.200 260.150" stroke="#8a999e" stroke-width="1.5" fill="none"/><path d="M 364.800 219.650 L 364.800 238.550" stroke="#8a999e" stroke-width="1.5" fill="none"/><path d="M 316.200 260.150 L 100.200 195.350" stroke="#8a999e" stroke-width="1.5" fill="none"/><path d="M 316.200 260.150 L 316.200 279.050" stroke="#8a999e" stroke-width="1.5" fill="none"/><path d="M 100.200 195.350 L 100.200 214.250" stroke="#8a999e" stroke-width="1.5" fill="none"/><path d="M 148.800 173.750 L 364.800 238.550" stroke="#8a999e" stroke-width="1.5" fill="none"/><path d="M 148.800 173.750 L 100.200 214.250" stroke="#8a999e" stroke-width="1.5" fill="none"/><path d="M 364.800 238.550 L 316.200 279.050" stroke="#8a999e" stroke-width="1.5" fill="none"/><path d="M 316.200 279.050 L 100.200 214.250" stroke="#8a999e" stroke-width="1.5" fill="none"/><circle cx="148.79999935626984" cy="173.74999859184027" r="5" fill="#235d8b" stroke="white" stroke-width="1.5"/><text x="52" y="322" font-size="18" font-weight="700" fill="#235d8b">Inner point Z: 0.16 m</text><rect x="465" y="101" width="405" height="260" rx="9" fill="#ffffff" stroke="#58686c" stroke-width="1.5"/><text x="483" y="129" font-size="15" font-weight="700" fill="#58686c">CANDIDATE</text><path d="M 573.000 160.250 L 843.000 241.250" stroke="#8a999e" stroke-width="1.5" fill="none"/><path d="M 573.000 160.250 L 492.000 227.750" stroke="#8a999e" stroke-width="1.5" fill="none"/><path d="M 573.000 160.250 L 573.000 133.250" stroke="#8a999e" stroke-width="1.5" fill="none"/><path d="M 843.000 241.250 L 762.000 308.750" stroke="#8a999e" stroke-width="1.5" fill="none"/><path d="M 843.000 241.250 L 843.000 214.250" stroke="#8a999e" stroke-width="1.5" fill="none"/><path d="M 762.000 308.750 L 492.000 227.750" stroke="#8a999e" stroke-width="1.5" fill="none"/><path d="M 762.000 308.750 L 762.000 281.750" stroke="#8a999e" stroke-width="1.5" fill="none"/><path d="M 492.000 227.750 L 492.000 200.750" stroke="#8a999e" stroke-width="1.5" fill="none"/><path d="M 573.000 133.250 L 843.000 214.250" stroke="#8a999e" stroke-width="1.5" fill="none"/><path d="M 573.000 133.250 L 492.000 200.750" stroke="#8a999e" stroke-width="1.5" fill="none"/><path d="M 573.000 133.250 L 583.800 154.850" stroke="#8a999e" stroke-width="1.5" fill="none"/><path d="M 843.000 214.250 L 762.000 281.750" stroke="#8a999e" stroke-width="1.5" fill="none"/><path d="M 843.000 214.250 L 799.800 219.650" stroke="#8a999e" stroke-width="1.5" fill="none"/><path d="M 762.000 281.750 L 492.000 200.750" stroke="#8a999e" stroke-width="1.5" fill="none"/><path d="M 762.000 281.750 L 751.200 260.150" stroke="#8a999e" stroke-width="1.5" fill="none"/><path d="M 492.000 200.750 L 535.200 195.350" stroke="#8a999e" stroke-width="1.5" fill="none"/><path d="M 583.800 154.850 L 799.800 219.650" stroke="#8a999e" stroke-width="1.5" fill="none"/><path d="M 583.800 154.850 L 535.200 195.350" stroke="#8a999e" stroke-width="1.5" fill="none"/><path d="M 583.800 154.850 L 583.800 168.350" stroke="#a43b32" stroke-width="1.5" fill="none"/><path d="M 799.800 219.650 L 751.200 260.150" stroke="#8a999e" stroke-width="1.5" fill="none"/><path d="M 799.800 219.650 L 799.800 238.550" stroke="#8a999e" stroke-width="1.5" fill="none"/><path d="M 751.200 260.150 L 535.200 195.350" stroke="#8a999e" stroke-width="1.5" fill="none"/><path d="M 751.200 260.150 L 751.200 279.050" stroke="#8a999e" stroke-width="1.5" fill="none"/><path d="M 535.200 195.350 L 535.200 214.250" stroke="#8a999e" stroke-width="1.5" fill="none"/><path d="M 583.800 168.350 L 799.800 238.550" stroke="#a43b32" stroke-width="1.5" fill="none"/><path d="M 583.800 168.350 L 535.200 214.250" stroke="#a43b32" stroke-width="1.5" fill="none"/><path d="M 799.800 238.550 L 751.200 279.050" stroke="#8a999e" stroke-width="1.5" fill="none"/><path d="M 751.200 279.050 L 535.200 214.250" stroke="#8a999e" stroke-width="1.5" fill="none"/><circle cx="583.7999993562698" cy="168.34999871253967" r="5" fill="#a43b32" stroke="white" stroke-width="1.5"/><text x="487" y="322" font-size="18" font-weight="700" fill="#a43b32">Inner point Z: 0.20 m</text><text x="30" y="397" font-size="21" font-weight="700" fill="#222a2c">Both: 2 × 1 × 0.2 m outer bounds · center (3, 2, 0.2) m</text><text x="30" y="438" font-size="20" font-weight="400" fill="#286649">USD   Profile   Units   Mesh structure   Layout   Target</text><text x="30" y="469" font-size="19" font-weight="700" fill="#286649">Six checks pass</text><text x="490" y="469" font-size="21" font-weight="700" fill="#a43b32">Shape preservation: FAIL</text><line x1="30" y1="495" x2="870" y2="495" stroke="#c5c9c5"/><text x="30" y="539" font-size="28" font-weight="700" fill="#a43b32">REJECT</text><text x="200" y="539" font-size="20" font-weight="400" fill="#222a2c">The required baseline geometry comparison failed.</text><text x="30" y="580" font-size="17" font-weight="400" fill="#586166">Wireframe projection from saved USD; no rendering or physics assessment.</text></g></svg>