<svg xmlns="http://www.w3.org/2000/svg" viewBox="0 0 390 810" role="img" aria-labelledby="title desc"><title id="title">Same outer dimensions, changed inner geometry</title><desc id="desc">Wireframes project the recorded USD baseline and candidate. One inner floor point moves 4 centimetres. Six checks pass and shape preservation fails. A deliberately constructed evaluator test, not a model hallucination.</desc><defs><marker id="arrow" viewBox="0 0 10 10" refX="8" refY="5" markerWidth="6" markerHeight="6" orient="auto-start-reverse"><path d="M 0 0 L 10 5 L 0 10 z" fill="#65706e"/></marker></defs><rect width="390" height="810" fill="#fbfaf7"/><g font-family="Arial,Helvetica,sans-serif" fill="#222a2c"><text x="20" y="32" font-size="23" font-weight="400" fill="#222a2c">Same outer dimensions.</text><text x="20" y="61" font-size="23" font-weight="400" fill="#222a2c">A different inner shape.</text><text x="20" y="93" font-size="16" font-weight="400" fill="#586166">Recorded, deliberately constructed test</text><rect x="20" y="118" width="350" height="245" rx="9" fill="#ffffff" stroke="#58686c" stroke-width="1.5"/><text x="38" y="146" font-size="15" font-weight="700" fill="#58686c">BASELINE</text><path d="M 112.615 181.038 L 348.000 251.654" stroke="#8a999e" stroke-width="1.5" fill="none"/><path d="M 112.615 181.038 L 42.000 239.885" stroke="#8a999e" stroke-width="1.5" fill="none"/><path d="M 112.615 181.038 L 112.615 157.500" stroke="#8a999e" stroke-width="1.5" fill="none"/><path d="M 348.000 251.654 L 277.385 310.500" stroke="#8a999e" stroke-width="1.5" fill="none"/><path d="M 348.000 251.654 L 348.000 228.115" stroke="#8a999e" stroke-width="1.5" fill="none"/><path d="M 277.385 310.500 L 42.000 239.885" stroke="#8a999e" stroke-width="1.5" fill="none"/><path d="M 277.385 310.500 L 277.385 286.962" stroke="#8a999e" stroke-width="1.5" fill="none"/><path d="M 42.000 239.885 L 42.000 216.346" stroke="#8a999e" stroke-width="1.5" fill="none"/><path d="M 112.615 157.500 L 348.000 228.115" stroke="#8a999e" stroke-width="1.5" fill="none"/><path d="M 112.615 157.500 L 42.000 216.346" stroke="#8a999e" stroke-width="1.5" fill="none"/><path d="M 112.615 157.500 L 122.031 176.331" stroke="#8a999e" stroke-width="1.5" fill="none"/><path d="M 348.000 228.115 L 277.385 286.962" stroke="#8a999e" stroke-width="1.5" fill="none"/><path d="M 348.000 228.115 L 310.338 232.823" stroke="#8a999e" stroke-width="1.5" fill="none"/><path d="M 277.385 286.962 L 42.000 216.346" stroke="#8a999e" stroke-width="1.5" fill="none"/><path d="M 277.385 286.962 L 267.969 268.131" stroke="#8a999e" stroke-width="1.5" fill="none"/><path d="M 42.000 216.346 L 79.662 211.638" stroke="#8a999e" stroke-width="1.5" fill="none"/><path d="M 122.031 176.331 L 310.338 232.823" stroke="#8a999e" stroke-width="1.5" fill="none"/><path d="M 122.031 176.331 L 79.662 211.638" stroke="#8a999e" stroke-width="1.5" fill="none"/><path d="M 122.031 176.331 L 122.031 192.808" stroke="#8a999e" stroke-width="1.5" fill="none"/><path d="M 310.338 232.823 L 267.969 268.131" stroke="#8a999e" stroke-width="1.5" fill="none"/><path d="M 310.338 232.823 L 310.338 249.300" stroke="#8a999e" stroke-width="1.5" fill="none"/><path d="M 267.969 268.131 L 79.662 211.638" stroke="#8a999e" stroke-width="1.5" fill="none"/><path d="M 267.969 268.131 L 267.969 284.608" stroke="#8a999e" stroke-width="1.5" fill="none"/><path d="M 79.662 211.638 L 79.662 228.115" stroke="#8a999e" stroke-width="1.5" fill="none"/><path d="M 122.031 192.808 L 310.338 249.300" stroke="#8a999e" stroke-width="1.5" fill="none"/><path d="M 122.031 192.808 L 79.662 228.115" stroke="#8a999e" stroke-width="1.5" fill="none"/><path d="M 310.338 249.300 L 267.969 284.608" stroke="#8a999e" stroke-width="1.5" fill="none"/><path d="M 267.969 284.608 L 79.662 228.115" stroke="#8a999e" stroke-width="1.5" fill="none"/><circle cx="122.03076866956857" cy="192.80769108006587" r="5" fill="#235d8b" stroke="white" stroke-width="1.5"/><text x="37" y="335" font-size="18" font-weight="700" fill="#235d8b">Inner point Z: 0.16 m</text><rect x="20" y="379" width="350" height="245" rx="9" fill="#ffffff" stroke="#58686c" stroke-width="1.5"/><text x="38" y="407" font-size="15" font-weight="700" fill="#58686c">CANDIDATE</text><path d="M 112.615 442.038 L 348.000 512.654" stroke="#8a999e" stroke-width="1.5" fill="none"/><path d="M 112.615 442.038 L 42.000 500.885" stroke="#8a999e" stroke-width="1.5" fill="none"/><path d="M 112.615 442.038 L 112.615 418.500" stroke="#8a999e" stroke-width="1.5" fill="none"/><path d="M 348.000 512.654 L 277.385 571.500" stroke="#8a999e" stroke-width="1.5" fill="none"/><path d="M 348.000 512.654 L 348.000 489.115" stroke="#8a999e" stroke-width="1.5" fill="none"/><path d="M 277.385 571.500 L 42.000 500.885" stroke="#8a999e" stroke-width="1.5" fill="none"/><path d="M 277.385 571.500 L 277.385 547.962" stroke="#8a999e" stroke-width="1.5" fill="none"/><path d="M 42.000 500.885 L 42.000 477.346" stroke="#8a999e" stroke-width="1.5" fill="none"/><path d="M 112.615 418.500 L 348.000 489.115" stroke="#8a999e" stroke-width="1.5" fill="none"/><path d="M 112.615 418.500 L 42.000 477.346" stroke="#8a999e" stroke-width="1.5" fill="none"/><path d="M 112.615 418.500 L 122.031 437.331" stroke="#8a999e" stroke-width="1.5" fill="none"/><path d="M 348.000 489.115 L 277.385 547.962" stroke="#8a999e" stroke-width="1.5" fill="none"/><path d="M 348.000 489.115 L 310.338 493.823" stroke="#8a999e" stroke-width="1.5" fill="none"/><path d="M 277.385 547.962 L 42.000 477.346" stroke="#8a999e" stroke-width="1.5" fill="none"/><path d="M 277.385 547.962 L 267.969 529.131" stroke="#8a999e" stroke-width="1.5" fill="none"/><path d="M 42.000 477.346 L 79.662 472.638" stroke="#8a999e" stroke-width="1.5" fill="none"/><path d="M 122.031 437.331 L 310.338 493.823" stroke="#8a999e" stroke-width="1.5" fill="none"/><path d="M 122.031 437.331 L 79.662 472.638" stroke="#8a999e" stroke-width="1.5" fill="none"/><path d="M 122.031 437.331 L 122.031 449.100" stroke="#a43b32" stroke-width="1.5" fill="none"/><path d="M 310.338 493.823 L 267.969 529.131" stroke="#8a999e" stroke-width="1.5" fill="none"/><path d="M 310.338 493.823 L 310.338 510.300" stroke="#8a999e" stroke-width="1.5" fill="none"/><path d="M 267.969 529.131 L 79.662 472.638" stroke="#8a999e" stroke-width="1.5" fill="none"/><path d="M 267.969 529.131 L 267.969 545.608" stroke="#8a999e" stroke-width="1.5" fill="none"/><path d="M 79.662 472.638 L 79.662 489.115" stroke="#8a999e" stroke-width="1.5" fill="none"/><path d="M 122.031 449.100 L 310.338 510.300" stroke="#a43b32" stroke-width="1.5" fill="none"/><path d="M 122.031 449.100 L 79.662 489.115" stroke="#a43b32" stroke-width="1.5" fill="none"/><path d="M 310.338 510.300 L 267.969 545.608" stroke="#8a999e" stroke-width="1.5" fill="none"/><path d="M 267.969 545.608 L 79.662 489.115" stroke="#8a999e" stroke-width="1.5" fill="none"/><circle cx="122.03076866956857" cy="449.0999988775987" r="5" fill="#a43b32" stroke="white" stroke-width="1.5"/><text x="37" y="596" font-size="18" font-weight="700" fill="#a43b32">Inner point Z: 0.20 m</text><text x="20" y="656" font-size="18" font-weight="700" fill="#222a2c">Both: 2 × 1 × 0.2 m outer bounds</text><text x="20" y="685" font-size="17" font-weight="400" fill="#222a2c">Same requested center: (3, 2, 0.2) m</text><text x="20" y="721" font-size="16" font-weight="400" fill="#286649">USD · profile · units · mesh · layout · target</text><text x="20" y="747" font-size="18" font-weight="700" fill="#a43b32">All six pass. Shape preservation fails.</text><text x="20" y="786" font-size="22" font-weight="700" fill="#a43b32">Result: REJECT</text></g></svg>